# xmcd
#
# Track frame offsets:
#	150
#	16479
#	37370
#	56694
#	77013
#	92806
#	118949
#	140203
#	160434
#	180482
#
# Disc length: 2686 seconds
#
# Revision: 1
# Processed by: cddbd v1.5.2PL0 Copyright (c) Steve Scherf et al.
# Submitted via: EZCDAudioConverter 8.0.2.1
#
DISCID=900a7c0a
DTITLE=Thanh Hà - Ru Lòng Khờ Dại
DYEAR=2007
DGENRE=World Pop
TTITLE0=Thanh Hà - Bội ước
TTITLE1=Thanh Hà - Chiếc lá cuối cùng
TTITLE2=Thanh Hà - Còn ta với ưu phiền
TTITLE3=Thanh Hà - Ru Lòng Khờ Dại
TTITLE4=Thanh Hà - Ký ức
TTITLE5=Thanh Hà - LK tiếc nuối, Màu mắt nhung
TTITLE6=Thanh Hà, Mr Tô - Tên em gửi gió bay
TTITLE7=Thanh Hà - Tìm ánh sao rơi
TTITLE8=Thanh Hà - Trò chơi tình yêu
TTITLE9=Thanh Hà - Yêu trong lặng lẽ
EXTD=
EXTT0=
EXTT1=
EXTT2=
EXTT3=
EXTT4=
EXTT5=
EXTT6=
EXTT7=
EXTT8=
EXTT9=
PLAYORDER=
